{
    "asset" : {
        "generator" : "Khronos glTF Blender I/O v1.0.5",
        "version" : "2.0"
    },
    "scene" : 0,
    "scenes" : [
        {
            "name" : "Scene",
            "nodes" : [
                0,
                1
            ]
        }
    ],
    "nodes" : [
        {
            "mesh" : 0,
            "name" : "Object_3",
            "rotation" : [
                -0.7073004245758057,
                0,
                0,
                0.7069131731987
            ],
            "scale" : [
                0.479134202003479,
                0.4791342616081238,
                0.4791342616081238
            ]
        },
        {
            "mesh" : 1,
            "name" : "Object_4",
            "rotation" : [
                -0.7073004245758057,
                0,
                0,
                0.7069131731987
            ],
            "scale" : [
                0.479134202003479,
                0.4791342616081238,
                0.4791342616081238
            ]
        }
    ],
    "materials" : [
        {
            "doubleSided" : true,
            "emissiveFactor" : [
                1,
                1,
                1
            ],
            "emissiveTexture" : {
                "index" : 0,
                "texCoord" : 0
            },
            "name" : "Material__207",
            "pbrMetallicRoughness" : {
                "baseColorTexture" : {
                    "index" : 1,
                    "texCoord" : 0
                },
                "metallicFactor" : 0,
                "roughnessFactor" : 1
            }
        },
        {
            "doubleSided" : true,
            "emissiveFactor" : [
                1,
                1,
                1
            ],
            "emissiveTexture" : {
                "index" : 2,
                "texCoord" : 0
            },
            "name" : "Material__208",
            "pbrMetallicRoughness" : {
                "baseColorTexture" : {
                    "index" : 3,
                    "texCoord" : 0
                },
                "metallicFactor" : 0,
                "roughnessFactor" : 1
            }
        }
    ],
    "meshes" : [
        {
            "name" : "Mesh_0",
            "primitives" : [
                {
                    "attributes" : {
                        "POSITION" : 0,
                        "NORMAL" : 1,
                        "TEXCOORD_0" : 2
                    },
                    "indices" : 3,
                    "material" : 0
                }
            ]
        },
        {
            "name" : "Mesh_1",
            "primitives" : [
                {
                    "attributes" : {
                        "POSITION" : 4,
                        "NORMAL" : 5,
                        "TEXCOORD_0" : 6
                    },
                    "indices" : 7,
                    "material" : 1
                }
            ]
        }
    ],
    "textures" : [
        {
            "source" : 0
        },
        {
            "source" : 1
        },
        {
            "source" : 2
        },
        {
            "source" : 3
        }
    ],
    "images" : [
        {
            "mimeType" : "image/png",
            "name" : "Material__207_emissive",
            "uri" : "Material__207_emissive.png"
        },
        {
            "mimeType" : "image/png",
            "name" : "Material__207_baseColor",
            "uri" : "Material__207_baseColor.png"
        },
        {
            "mimeType" : "image/png",
            "name" : "Material__208_emissive",
            "uri" : "Material__208_emissive.png"
        },
        {
            "mimeType" : "image/png",
            "name" : "Material__208_baseColor",
            "uri" : "Material__208_baseColor.png"
        }
    ],
    "accessors" : [
        {
            "bufferView" : 0,
            "componentType" : 5126,
            "count" : 981,
            "max" : [
                0.8045639991760254,
                0.29137951135635376,
                1.8334810733795166
            ],
            "min" : [
                -0.8045639991760254,
                -0.29137951135635376,
                -0.009509861469268799
            ],
            "type" : "VEC3"
        },
        {
            "bufferView" : 1,
            "componentType" : 5126,
            "count" : 981,
            "type" : "VEC3"
        },
        {
            "bufferView" : 2,
            "componentType" : 5126,
            "count" : 981,
            "type" : "VEC2"
        },
        {
            "bufferView" : 3,
            "componentType" : 5123,
            "count" : 4548,
            "type" : "SCALAR"
        },
        {
            "bufferView" : 4,
            "componentType" : 5126,
            "count" : 58,
            "max" : [
                0.15263600647449493,
                0.16145439445972443,
                1.630688190460205
            ],
            "min" : [
                -0.15263600647449493,
                0.05123339593410492,
                1.4862890243530273
            ],
            "type" : "VEC3"
        },
        {
            "bufferView" : 5,
            "componentType" : 5126,
            "count" : 58,
            "type" : "VEC3"
        },
        {
            "bufferView" : 6,
            "componentType" : 5126,
            "count" : 58,
            "type" : "VEC2"
        },
        {
            "bufferView" : 7,
            "componentType" : 5123,
            "count" : 276,
            "type" : "SCALAR"
        }
    ],
    "bufferViews" : [
        {
            "buffer" : 0,
            "byteLength" : 11772,
            "byteOffset" : 0
        },
        {
            "buffer" : 0,
            "byteLength" : 11772,
            "byteOffset" : 11772
        },
        {
            "buffer" : 0,
            "byteLength" : 7848,
            "byteOffset" : 23544
        },
        {
            "buffer" : 0,
            "byteLength" : 9096,
            "byteOffset" : 31392
        },
        {
            "buffer" : 0,
            "byteLength" : 696,
            "byteOffset" : 40488
        },
        {
            "buffer" : 0,
            "byteLength" : 696,
            "byteOffset" : 41184
        },
        {
            "buffer" : 0,
            "byteLength" : 464,
            "byteOffset" : 41880
        },
        {
            "buffer" : 0,
            "byteLength" : 552,
            "byteOffset" : 42344
        }
    ],
    "buffers" : [
        {
            "byteLength" : 42896,
            "uri" : "homerino.bin"
        }
    ]
}
