{
    "asset" : {
        "generator" : "Khronos glTF Blender I/O v1.0.5",
        "version" : "2.0"
    },
    "scene" : 0,
    "scenes" : [
        {
            "name" : "Scene",
            "nodes" : [
                0,
                1,
                2,
                3,
                4,
                5
            ]
        }
    ],
    "nodes" : [
        {
            "mesh" : 0,
            "name" : "Cube",
            "rotation" : [
                0.3620109260082245,
                0.13315217196941376,
                0.14371806383132935,
                0.9113526940345764
            ],
            "scale" : [
                0.28279101848602295,
                0.28279101848602295,
                0.28279101848602295
            ],
            "translation" : [
                -1.0604432821273804,
                0.8288962841033936,
                1.558203101158142
            ]
        },
        {
            "mesh" : 1,
            "name" : "Cone",
            "rotation" : [
                0.34584909677505493,
                0.12720763683319092,
                0.13730181753635406,
                0.9194318056106567
            ],
            "scale" : [
                0.31082022190093994,
                0.31082022190093994,
                0.31082022190093994
            ],
            "translation" : [
                -0.2597081661224365,
                0.8298195600509644,
                -0.114634208381176
            ]
        },
        {
            "mesh" : 2,
            "name" : "Cube.001",
            "rotation" : [
                0.7399179339408875,
                0.31622037291526794,
                -0.19201691448688507,
                0.5618324279785156
            ],
            "scale" : [
                0.31417036056518555,
                0.31417036056518555,
                0.31417036056518555
            ],
            "translation" : [
                2.034376621246338,
                0.45786160230636597,
                0.16005873680114746
            ]
        },
        {
            "mesh" : 3,
            "name" : "Cone.001",
            "scale" : [
                0.3968808650970459,
                0.3968808650970459,
                0.3968808650970459
            ],
            "translation" : [
                -2.685608386993408,
                0.20830366015434265,
                -2.483274221420288
            ]
        },
        {
            "mesh" : 4,
            "name" : "Cube.002",
            "rotation" : [
                0.48504164814949036,
                0.834212064743042,
                -0.2622525095939636,
                0.006959894206374884
            ],
            "scale" : [
                0.28279101848602295,
                0.28279101848602295,
                0.28279101848602295
            ],
            "translation" : [
                0.19556927680969238,
                0.43357452750205994,
                -1.3959670066833496
            ]
        },
        {
            "mesh" : 5,
            "name" : "Cone.003",
            "rotation" : [
                0.2847135663032532,
                0.9239822030067444,
                -0.0025952416472136974,
                0.2553200423717499
            ],
            "scale" : [
                0.3968808650970459,
                0.3968808650970459,
                0.3968808650970459
            ],
            "translation" : [
                -0.8828549385070801,
                -0.3323514759540558,
                2.800483226776123
            ]
        }
    ],
    "materials" : [
        {
            "doubleSided" : true,
            "name" : "Material.001",
            "pbrMetallicRoughness" : {
                "baseColorFactor" : [
                    0.7374191880226135,
                    0.1596081703901291,
                    0.8000000715255737,
                    1
                ],
                "metallicFactor" : 0,
                "roughnessFactor" : 0.5
            }
        },
        {
            "doubleSided" : true,
            "name" : "Material.002",
            "pbrMetallicRoughness" : {
                "baseColorFactor" : [
                    0.32466310262680054,
                    0.8000000715255737,
                    0.11497160792350769,
                    1
                ],
                "metallicFactor" : 0,
                "roughnessFactor" : 0.5
            }
        },
        {
            "doubleSided" : true,
            "name" : "Material.003",
            "pbrMetallicRoughness" : {
                "baseColorFactor" : [
                    0.8000000715255737,
                    0.21638372540473938,
                    0.07440907508134842,
                    1
                ],
                "metallicFactor" : 0,
                "roughnessFactor" : 0.5
            }
        },
        {
            "doubleSided" : true,
            "name" : "Material.004",
            "pbrMetallicRoughness" : {
                "baseColorFactor" : [
                    0.09022139757871628,
                    0.3375357985496521,
                    0.8000000715255737,
                    1
                ],
                "metallicFactor" : 0,
                "roughnessFactor" : 0.5
            }
        }
    ],
    "meshes" : [
        {
            "name" : "Cube.001",
            "primitives" : [
                {
                    "attributes" : {
                        "POSITION" : 0,
                        "NORMAL" : 1,
                        "TEXCOORD_0" : 2
                    },
                    "indices" : 3,
                    "material" : 0
                }
            ]
        },
        {
            "name" : "Cone",
            "primitives" : [
                {
                    "attributes" : {
                        "POSITION" : 4,
                        "NORMAL" : 5,
                        "TEXCOORD_0" : 6
                    },
                    "indices" : 7,
                    "material" : 1
                }
            ]
        },
        {
            "name" : "Cube.002",
            "primitives" : [
                {
                    "attributes" : {
                        "POSITION" : 8,
                        "NORMAL" : 9,
                        "TEXCOORD_0" : 10
                    },
                    "indices" : 3,
                    "material" : 2
                }
            ]
        },
        {
            "name" : "Cone.001",
            "primitives" : [
                {
                    "attributes" : {
                        "POSITION" : 11,
                        "NORMAL" : 12,
                        "TEXCOORD_0" : 13
                    },
                    "indices" : 7,
                    "material" : 3
                }
            ]
        },
        {
            "name" : "Cube.003",
            "primitives" : [
                {
                    "attributes" : {
                        "POSITION" : 14,
                        "NORMAL" : 15,
                        "TEXCOORD_0" : 16
                    },
                    "indices" : 3,
                    "material" : 0
                }
            ]
        },
        {
            "name" : "Cone.003",
            "primitives" : [
                {
                    "attributes" : {
                        "POSITION" : 17,
                        "NORMAL" : 18,
                        "TEXCOORD_0" : 19
                    },
                    "indices" : 7,
                    "material" : 3
                }
            ]
        }
    ],
    "accessors" : [
        {
            "bufferView" : 0,
            "componentType" : 5126,
            "count" : 24,
            "max" : [
                1,
                1,
                1
            ],
            "min" : [
                -1,
                -1,
                -1
            ],
            "type" : "VEC3"
        },
        {
            "bufferView" : 1,
            "componentType" : 5126,
            "count" : 24,
            "type" : "VEC3"
        },
        {
            "bufferView" : 2,
            "componentType" : 5126,
            "count" : 24,
            "type" : "VEC2"
        },
        {
            "bufferView" : 3,
            "componentType" : 5123,
            "count" : 36,
            "type" : "SCALAR"
        },
        {
            "bufferView" : 4,
            "componentType" : 5126,
            "count" : 128,
            "max" : [
                1,
                1,
                1
            ],
            "min" : [
                -1,
                -1,
                -1
            ],
            "type" : "VEC3"
        },
        {
            "bufferView" : 5,
            "componentType" : 5126,
            "count" : 128,
            "type" : "VEC3"
        },
        {
            "bufferView" : 6,
            "componentType" : 5126,
            "count" : 128,
            "type" : "VEC2"
        },
        {
            "bufferView" : 7,
            "componentType" : 5123,
            "count" : 186,
            "type" : "SCALAR"
        },
        {
            "bufferView" : 8,
            "componentType" : 5126,
            "count" : 24,
            "max" : [
                1,
                1,
                1
            ],
            "min" : [
                -1,
                -1,
                -1
            ],
            "type" : "VEC3"
        },
        {
            "bufferView" : 9,
            "componentType" : 5126,
            "count" : 24,
            "type" : "VEC3"
        },
        {
            "bufferView" : 10,
            "componentType" : 5126,
            "count" : 24,
            "type" : "VEC2"
        },
        {
            "bufferView" : 11,
            "componentType" : 5126,
            "count" : 128,
            "max" : [
                1,
                1,
                1
            ],
            "min" : [
                -1,
                -1,
                -1
            ],
            "type" : "VEC3"
        },
        {
            "bufferView" : 12,
            "componentType" : 5126,
            "count" : 128,
            "type" : "VEC3"
        },
        {
            "bufferView" : 13,
            "componentType" : 5126,
            "count" : 128,
            "type" : "VEC2"
        },
        {
            "bufferView" : 14,
            "componentType" : 5126,
            "count" : 24,
            "max" : [
                1,
                1,
                1
            ],
            "min" : [
                -1,
                -1,
                -1
            ],
            "type" : "VEC3"
        },
        {
            "bufferView" : 15,
            "componentType" : 5126,
            "count" : 24,
            "type" : "VEC3"
        },
        {
            "bufferView" : 16,
            "componentType" : 5126,
            "count" : 24,
            "type" : "VEC2"
        },
        {
            "bufferView" : 17,
            "componentType" : 5126,
            "count" : 128,
            "max" : [
                1,
                1,
                1
            ],
            "min" : [
                -1,
                -1,
                -1
            ],
            "type" : "VEC3"
        },
        {
            "bufferView" : 18,
            "componentType" : 5126,
            "count" : 128,
            "type" : "VEC3"
        },
        {
            "bufferView" : 19,
            "componentType" : 5126,
            "count" : 128,
            "type" : "VEC2"
        }
    ],
    "bufferViews" : [
        {
            "buffer" : 0,
            "byteLength" : 288,
            "byteOffset" : 0
        },
        {
            "buffer" : 0,
            "byteLength" : 288,
            "byteOffset" : 288
        },
        {
            "buffer" : 0,
            "byteLength" : 192,
            "byteOffset" : 576
        },
        {
            "buffer" : 0,
            "byteLength" : 72,
            "byteOffset" : 768
        },
        {
            "buffer" : 0,
            "byteLength" : 1536,
            "byteOffset" : 840
        },
        {
            "buffer" : 0,
            "byteLength" : 1536,
            "byteOffset" : 2376
        },
        {
            "buffer" : 0,
            "byteLength" : 1024,
            "byteOffset" : 3912
        },
        {
            "buffer" : 0,
            "byteLength" : 372,
            "byteOffset" : 4936
        },
        {
            "buffer" : 0,
            "byteLength" : 288,
            "byteOffset" : 5308
        },
        {
            "buffer" : 0,
            "byteLength" : 288,
            "byteOffset" : 5596
        },
        {
            "buffer" : 0,
            "byteLength" : 192,
            "byteOffset" : 5884
        },
        {
            "buffer" : 0,
            "byteLength" : 1536,
            "byteOffset" : 6076
        },
        {
            "buffer" : 0,
            "byteLength" : 1536,
            "byteOffset" : 7612
        },
        {
            "buffer" : 0,
            "byteLength" : 1024,
            "byteOffset" : 9148
        },
        {
            "buffer" : 0,
            "byteLength" : 288,
            "byteOffset" : 10172
        },
        {
            "buffer" : 0,
            "byteLength" : 288,
            "byteOffset" : 10460
        },
        {
            "buffer" : 0,
            "byteLength" : 192,
            "byteOffset" : 10748
        },
        {
            "buffer" : 0,
            "byteLength" : 1536,
            "byteOffset" : 10940
        },
        {
            "buffer" : 0,
            "byteLength" : 1536,
            "byteOffset" : 12476
        },
        {
            "buffer" : 0,
            "byteLength" : 1024,
            "byteOffset" : 14012
        }
    ],
    "buffers" : [
        {
            "byteLength" : 15036,
            "uri" : "modellini.bin"
        }
    ]
}
