{
    "asset" : {
        "generator" : "Khronos glTF Blender I/O v1.0.5",
        "version" : "2.0"
    },
    "scene" : 0,
    "scenes" : [
        {
            "name" : "Scene",
            "nodes" : [
                0
            ]
        }
    ],
    "nodes" : [
        {
            "mesh" : 0,
            "name" : "bustotrump",
            "rotation" : [
                -0.002950187074020505,
                0,
                0,
                0.9999956488609314
            ]
        }
    ],
    "materials" : [
        {
            "doubleSided" : true,
            "name" : "Default OBJ",
            "pbrMetallicRoughness" : {
                "baseColorFactor" : [
                    0.2097017765045166,
                    0.5068124532699585,
                    0.8000000715255737,
                    1
                ],
                "metallicFactor" : 0,
                "roughnessFactor" : 0.5
            }
        }
    ],
    "meshes" : [
        {
            "name" : "bustotrump",
            "primitives" : [
                {
                    "attributes" : {
                        "POSITION" : 0,
                        "NORMAL" : 1,
                        "TEXCOORD_0" : 2
                    },
                    "indices" : 3,
                    "material" : 0
                }
            ]
        }
    ],
    "accessors" : [
        {
            "bufferView" : 0,
            "componentType" : 5126,
            "count" : 51644,
            "max" : [
                0.7237412929534912,
                2.001154899597168,
                0.714493989944458
            ],
            "min" : [
                -0.7254754304885864,
                0,
                -0.714493989944458
            ],
            "type" : "VEC3"
        },
        {
            "bufferView" : 1,
            "componentType" : 5126,
            "count" : 51644,
            "type" : "VEC3"
        },
        {
            "bufferView" : 2,
            "componentType" : 5126,
            "count" : 51644,
            "type" : "VEC2"
        },
        {
            "bufferView" : 3,
            "componentType" : 5123,
            "count" : 232563,
            "type" : "SCALAR"
        }
    ],
    "bufferViews" : [
        {
            "buffer" : 0,
            "byteLength" : 619728,
            "byteOffset" : 0
        },
        {
            "buffer" : 0,
            "byteLength" : 619728,
            "byteOffset" : 619728
        },
        {
            "buffer" : 0,
            "byteLength" : 413152,
            "byteOffset" : 1239456
        },
        {
            "buffer" : 0,
            "byteLength" : 465126,
            "byteOffset" : 1652608
        }
    ],
    "buffers" : [
        {
            "byteLength" : 2117736,
            "uri" : "bustodef.bin"
        }
    ]
}
