{
    "asset" : {
        "generator" : "Khronos glTF Blender I/O v1.0.5",
        "version" : "2.0"
    },
    "scene" : 0,
    "scenes" : [
        {
            "name" : "Scene",
            "nodes" : [
                0
            ]
        }
    ],
    "nodes" : [
        {
            "mesh" : 0,
            "name" : "casabiancadef.001",
            "rotation" : [
                0.0023360231425613165,
                0,
                0,
                0.9999972581863403
            ],
            "translation" : [
                9.43666934967041,
                -0.6159130930900574,
                0
            ]
        }
    ],
    "materials" : [
        {
            "doubleSided" : true,
            "name" : "Default OBJ.001",
            "pbrMetallicRoughness" : {
                "baseColorFactor" : [
                    0.8000000715255737,
                    0.2101897895336151,
                    0.5826552510261536,
                    1
                ],
                "metallicFactor" : 0,
                "roughnessFactor" : 0.5
            }
        }
    ],
    "meshes" : [
        {
            "name" : "casabiancadef.001",
            "primitives" : [
                {
                    "attributes" : {
                        "POSITION" : 0,
                        "NORMAL" : 1
                    },
                    "indices" : 2,
                    "material" : 0
                },
                {
                    "attributes" : {
                        "POSITION" : 3,
                        "NORMAL" : 4
                    },
                    "indices" : 5,
                    "material" : 0
                },
                {
                    "attributes" : {
                        "POSITION" : 6,
                        "NORMAL" : 7
                    },
                    "indices" : 8,
                    "material" : 0
                },
                {
                    "attributes" : {
                        "POSITION" : 9,
                        "NORMAL" : 10
                    },
                    "indices" : 11,
                    "material" : 0
                },
                {
                    "attributes" : {
                        "POSITION" : 12,
                        "NORMAL" : 13
                    },
                    "indices" : 14,
                    "material" : 0
                },
                {
                    "attributes" : {
                        "POSITION" : 15,
                        "NORMAL" : 16
                    },
                    "indices" : 17,
                    "material" : 0
                }
            ]
        }
    ],
    "accessors" : [
        {
            "bufferView" : 0,
            "componentType" : 5126,
            "count" : 65535,
            "max" : [
                -3.0344507694244385,
                6.938465595245361,
                4.963045597076416
            ],
            "min" : [
                -15.718996047973633,
                0.6276211738586426,
                -7.417078018188477
            ],
            "type" : "VEC3"
        },
        {
            "bufferView" : 1,
            "componentType" : 5126,
            "count" : 65535,
            "type" : "VEC3"
        },
        {
            "bufferView" : 2,
            "componentType" : 5123,
            "count" : 175914,
            "type" : "SCALAR"
        },
        {
            "bufferView" : 3,
            "componentType" : 5126,
            "count" : 65535,
            "max" : [
                -7.286567687988281,
                6.700811386108398,
                4.962140083312988
            ],
            "min" : [
                -15.723504066467285,
                0.629275381565094,
                -7.417078018188477
            ],
            "type" : "VEC3"
        },
        {
            "bufferView" : 4,
            "componentType" : 5126,
            "count" : 65535,
            "type" : "VEC3"
        },
        {
            "bufferView" : 5,
            "componentType" : 5123,
            "count" : 324075,
            "type" : "SCALAR"
        },
        {
            "bufferView" : 6,
            "componentType" : 5126,
            "count" : 65535,
            "max" : [
                -3.0311667919158936,
                6.938389778137207,
                4.962630271911621
            ],
            "min" : [
                -15.724535942077637,
                0.6309430003166199,
                -4.9547271728515625
            ],
            "type" : "VEC3"
        },
        {
            "bufferView" : 7,
            "componentType" : 5126,
            "count" : 65535,
            "type" : "VEC3"
        },
        {
            "bufferView" : 8,
            "componentType" : 5123,
            "count" : 327459,
            "type" : "SCALAR"
        },
        {
            "bufferView" : 9,
            "componentType" : 5126,
            "count" : 65535,
            "max" : [
                -3.031243324279785,
                6.511237621307373,
                4.961421012878418
            ],
            "min" : [
                -9.427058219909668,
                0.6276211738586426,
                -7.417078018188477
            ],
            "type" : "VEC3"
        },
        {
            "bufferView" : 10,
            "componentType" : 5126,
            "count" : 65535,
            "type" : "VEC3"
        },
        {
            "bufferView" : 11,
            "componentType" : 5123,
            "count" : 332910,
            "type" : "SCALAR"
        },
        {
            "bufferView" : 12,
            "componentType" : 5126,
            "count" : 2423,
            "max" : [
                -7.738951206207275,
                1.9288620948791504,
                2.696810007095337
            ],
            "min" : [
                -8.138238906860352,
                1.3121635913848877,
                1.432433009147644
            ],
            "type" : "VEC3"
        },
        {
            "bufferView" : 13,
            "componentType" : 5126,
            "count" : 2423,
            "type" : "VEC3"
        },
        {
            "bufferView" : 14,
            "componentType" : 5123,
            "count" : 14409,
            "type" : "SCALAR"
        },
        {
            "bufferView" : 15,
            "componentType" : 5126,
            "count" : 6206,
            "max" : [
                -3.0364227294921875,
                6.938389778137207,
                4.963045597076416
            ],
            "min" : [
                -15.71872615814209,
                0.6325239539146423,
                -7.411552906036377
            ],
            "type" : "VEC3"
        },
        {
            "bufferView" : 16,
            "componentType" : 5126,
            "count" : 6206,
            "type" : "VEC3"
        },
        {
            "bufferView" : 17,
            "componentType" : 5123,
            "count" : 15555,
            "type" : "SCALAR"
        }
    ],
    "bufferViews" : [
        {
            "buffer" : 0,
            "byteLength" : 786420,
            "byteOffset" : 0
        },
        {
            "buffer" : 0,
            "byteLength" : 786420,
            "byteOffset" : 786420
        },
        {
            "buffer" : 0,
            "byteLength" : 351828,
            "byteOffset" : 1572840
        },
        {
            "buffer" : 0,
            "byteLength" : 786420,
            "byteOffset" : 1924668
        },
        {
            "buffer" : 0,
            "byteLength" : 786420,
            "byteOffset" : 2711088
        },
        {
            "buffer" : 0,
            "byteLength" : 648150,
            "byteOffset" : 3497508
        },
        {
            "buffer" : 0,
            "byteLength" : 786420,
            "byteOffset" : 4145660
        },
        {
            "buffer" : 0,
            "byteLength" : 786420,
            "byteOffset" : 4932080
        },
        {
            "buffer" : 0,
            "byteLength" : 654918,
            "byteOffset" : 5718500
        },
        {
            "buffer" : 0,
            "byteLength" : 786420,
            "byteOffset" : 6373420
        },
        {
            "buffer" : 0,
            "byteLength" : 786420,
            "byteOffset" : 7159840
        },
        {
            "buffer" : 0,
            "byteLength" : 665820,
            "byteOffset" : 7946260
        },
        {
            "buffer" : 0,
            "byteLength" : 29076,
            "byteOffset" : 8612080
        },
        {
            "buffer" : 0,
            "byteLength" : 29076,
            "byteOffset" : 8641156
        },
        {
            "buffer" : 0,
            "byteLength" : 28818,
            "byteOffset" : 8670232
        },
        {
            "buffer" : 0,
            "byteLength" : 74472,
            "byteOffset" : 8699052
        },
        {
            "buffer" : 0,
            "byteLength" : 74472,
            "byteOffset" : 8773524
        },
        {
            "buffer" : 0,
            "byteLength" : 31110,
            "byteOffset" : 8847996
        }
    ],
    "buffers" : [
        {
            "byteLength" : 8879108,
            "uri" : "casabianca.bin"
        }
    ]
}
