{
    "asset" : {
        "generator" : "Khronos glTF Blender I/O v1.0.5",
        "version" : "2.0"
    },
    "scene" : 0,
    "scenes" : [
        {
            "name" : "Scene",
            "nodes" : [
                0
            ]
        }
    ],
    "nodes" : [
        {
            "mesh" : 0,
            "name" : "Object_3.007",
            "scale" : [
                0.05930526927113533,
                0.05930526927113533,
                0.05930526927113533
            ],
            "translation" : [
                24.54852294921875,
                11.99999713897705,
                17.871337890625
            ]
        }
    ],
    "materials" : [
        {
            "doubleSided" : true,
            "emissiveFactor" : [
                0,
                0,
                0
            ],
            "name" : "material_0",
            "pbrMetallicRoughness" : {
                "baseColorFactor" : [
                    0.5,
                    0.5,
                    0.5,
                    1
                ],
                "metallicFactor" : 0,
                "roughnessFactor" : 0.6000000238418579
            }
        }
    ],
    "meshes" : [
        {
            "name" : "Mesh_0.008",
            "primitives" : [
                {
                    "attributes" : {
                        "POSITION" : 0,
                        "NORMAL" : 1
                    },
                    "indices" : 2,
                    "material" : 0
                },
                {
                    "attributes" : {
                        "POSITION" : 3,
                        "NORMAL" : 4
                    },
                    "indices" : 5,
                    "material" : 0
                },
                {
                    "attributes" : {
                        "POSITION" : 6,
                        "NORMAL" : 7
                    },
                    "indices" : 8,
                    "material" : 0
                }
            ]
        }
    ],
    "accessors" : [
        {
            "bufferView" : 0,
            "componentType" : 5126,
            "count" : 65535,
            "max" : [
                18.3884334564209,
                2.7368874549865723,
                18.389005661010742
            ],
            "min" : [
                -18.391460418701172,
                -202.8000030517578,
                -18.391345977783203
            ],
            "type" : "VEC3"
        },
        {
            "bufferView" : 1,
            "componentType" : 5126,
            "count" : 65535,
            "type" : "VEC3"
        },
        {
            "bufferView" : 2,
            "componentType" : 5123,
            "count" : 297444,
            "type" : "SCALAR"
        },
        {
            "bufferView" : 3,
            "componentType" : 5126,
            "count" : 32271,
            "max" : [
                17.703153610229492,
                2.7306764125823975,
                -9.525766372680664
            ],
            "min" : [
                -17.70315170288086,
                -9.738889694213867,
                -11.430320739746094
            ],
            "type" : "VEC3"
        },
        {
            "bufferView" : 4,
            "componentType" : 5126,
            "count" : 32271,
            "type" : "VEC3"
        },
        {
            "bufferView" : 5,
            "componentType" : 5123,
            "count" : 138798,
            "type" : "SCALAR"
        },
        {
            "bufferView" : 6,
            "componentType" : 5126,
            "count" : 2072,
            "max" : [
                17.190868377685547,
                2.7303578853607178,
                -9.525766372680664
            ],
            "min" : [
                -11.469245910644531,
                -9.117753982543945,
                -11.426183700561523
            ],
            "type" : "VEC3"
        },
        {
            "bufferView" : 7,
            "componentType" : 5126,
            "count" : 2072,
            "type" : "VEC3"
        },
        {
            "bufferView" : 8,
            "componentType" : 5123,
            "count" : 5457,
            "type" : "SCALAR"
        }
    ],
    "bufferViews" : [
        {
            "buffer" : 0,
            "byteLength" : 786420,
            "byteOffset" : 0
        },
        {
            "buffer" : 0,
            "byteLength" : 786420,
            "byteOffset" : 786420
        },
        {
            "buffer" : 0,
            "byteLength" : 594888,
            "byteOffset" : 1572840
        },
        {
            "buffer" : 0,
            "byteLength" : 387252,
            "byteOffset" : 2167728
        },
        {
            "buffer" : 0,
            "byteLength" : 387252,
            "byteOffset" : 2554980
        },
        {
            "buffer" : 0,
            "byteLength" : 277596,
            "byteOffset" : 2942232
        },
        {
            "buffer" : 0,
            "byteLength" : 24864,
            "byteOffset" : 3219828
        },
        {
            "buffer" : 0,
            "byteLength" : 24864,
            "byteOffset" : 3244692
        },
        {
            "buffer" : 0,
            "byteLength" : 10914,
            "byteOffset" : 3269556
        }
    ],
    "buffers" : [
        {
            "byteLength" : 3280472,
            "uri" : "colonnatrump.bin"
        }
    ]
}
