{
    "asset" : {
        "generator" : "Khronos glTF Blender I/O v1.0.5",
        "version" : "2.0"
    },
    "scene" : 0,
    "scenes" : [
        {
            "name" : "Scene",
            "nodes" : [
                0,
                1
            ]
        }
    ],
    "nodes" : [
        {
            "mesh" : 0,
            "name" : "water bottle cap_bottel cap darker_0",
            "rotation" : [
                -0.2808585464954376,
                -0.000107433064840734,
                -0.9597491025924683,
                -0.0003675983753055334
            ],
            "scale" : [
                0.449317991733551,
                -0.3658440411090851,
                0.44645917415618896
            ],
            "translation" : [
                -18.855796813964844,
                17.36013412475586,
                -7.622556209564209
            ]
        },
        {
            "mesh" : 1,
            "name" : "water bottle cap_bottel cap darker_0.002",
            "rotation" : [
                0.8049876093864441,
                0.00030837045051157475,
                -0.5932915806770325,
                -0.00022710816119797528
            ],
            "scale" : [
                0.449317991733551,
                -0.3658440411090851,
                0.44645917415618896
            ],
            "translation" : [
                24.472415924072266,
                17.36013412475586,
                17.824172973632812
            ]
        }
    ],
    "materials" : [
        {
            "doubleSided" : true,
            "emissiveFactor" : [
                0,
                0,
                0
            ],
            "name" : "bottel_cap_darker",
            "pbrMetallicRoughness" : {
                "baseColorFactor" : [
                    0.00485998997464776,
                    0.00639359001070261,
                    0.06071209907531738,
                    1
                ],
                "metallicFactor" : 0,
                "roughnessFactor" : 0.9977663159370422
            }
        },
        {
            "doubleSided" : true,
            "emissiveFactor" : [
                0,
                0.030974000692367554,
                1
            ],
            "name" : "bottle_cap",
            "pbrMetallicRoughness" : {
                "baseColorFactor" : [
                    0,
                    0.015487000346183777,
                    0.800000011920929,
                    1
                ],
                "metallicFactor" : 0,
                "roughnessFactor" : 0.5
            }
        },
        {
            "alphaMode" : "BLEND",
            "doubleSided" : true,
            "emissiveFactor" : [
                0,
                0,
                0
            ],
            "name" : "transparent_bottle",
            "pbrMetallicRoughness" : {
                "baseColorFactor" : [
                    0.800000011920929,
                    0.800000011920929,
                    0.800000011920929,
                    0.20000000298023224
                ],
                "metallicFactor" : 1,
                "roughnessFactor" : 0.2578125
            }
        },
        {
            "doubleSided" : true,
            "emissiveFactor" : [
                0,
                0,
                0
            ],
            "name" : "back_label",
            "pbrMetallicRoughness" : {
                "baseColorTexture" : {
                    "index" : 0,
                    "texCoord" : 0
                },
                "metallicFactor" : 0,
                "roughnessFactor" : 0.7809109687805176
            }
        },
        {
            "alphaMode" : "BLEND",
            "doubleSided" : true,
            "emissiveFactor" : [
                0,
                0,
                0
            ],
            "name" : "fiji_label",
            "pbrMetallicRoughness" : {
                "baseColorTexture" : {
                    "index" : 1,
                    "texCoord" : 0
                },
                "metallicFactor" : 0,
                "roughnessFactor" : 0
            }
        }
    ],
    "meshes" : [
        {
            "name" : "water bottle cap_bottel cap darker_0",
            "primitives" : [
                {
                    "attributes" : {
                        "POSITION" : 0,
                        "NORMAL" : 1,
                        "TEXCOORD_0" : 2
                    },
                    "indices" : 3,
                    "material" : 0
                },
                {
                    "attributes" : {
                        "POSITION" : 4,
                        "NORMAL" : 5,
                        "TEXCOORD_0" : 6
                    },
                    "indices" : 7,
                    "material" : 1
                },
                {
                    "attributes" : {
                        "POSITION" : 8,
                        "NORMAL" : 9,
                        "TEXCOORD_0" : 10
                    },
                    "indices" : 11,
                    "material" : 2
                },
                {
                    "attributes" : {
                        "POSITION" : 12,
                        "NORMAL" : 13,
                        "TEXCOORD_0" : 14
                    },
                    "indices" : 15,
                    "material" : 3
                },
                {
                    "attributes" : {
                        "POSITION" : 16,
                        "NORMAL" : 17,
                        "TEXCOORD_0" : 18
                    },
                    "indices" : 15,
                    "material" : 4
                }
            ]
        },
        {
            "name" : "water bottle cap_bottel cap darker_0.002",
            "primitives" : [
                {
                    "attributes" : {
                        "POSITION" : 19,
                        "NORMAL" : 20,
                        "TEXCOORD_0" : 21
                    },
                    "indices" : 3,
                    "material" : 0
                },
                {
                    "attributes" : {
                        "POSITION" : 22,
                        "NORMAL" : 23,
                        "TEXCOORD_0" : 24
                    },
                    "indices" : 7,
                    "material" : 1
                },
                {
                    "attributes" : {
                        "POSITION" : 25,
                        "NORMAL" : 26,
                        "TEXCOORD_0" : 27
                    },
                    "indices" : 11,
                    "material" : 2
                },
                {
                    "attributes" : {
                        "POSITION" : 28,
                        "NORMAL" : 29,
                        "TEXCOORD_0" : 30
                    },
                    "indices" : 15,
                    "material" : 3
                },
                {
                    "attributes" : {
                        "POSITION" : 31,
                        "NORMAL" : 32,
                        "TEXCOORD_0" : 33
                    },
                    "indices" : 15,
                    "material" : 4
                }
            ]
        }
    ],
    "textures" : [
        {
            "source" : 0
        },
        {
            "source" : 1
        }
    ],
    "images" : [
        {
            "mimeType" : "image/png",
            "name" : "back_label_baseColor",
            "uri" : "back_label_baseColor.png"
        },
        {
            "mimeType" : "image/png",
            "name" : "fiji_label_baseColor",
            "uri" : "fiji_label_baseColor.png"
        }
    ],
    "accessors" : [
        {
            "bufferView" : 0,
            "componentType" : 5126,
            "count" : 44,
            "max" : [
                0.9217678308486938,
                -0.46595877408981323,
                0.9217678904533386
            ],
            "min" : [
                -0.9217678904533386,
                -0.5259111523628235,
                -0.9217678904533386
            ],
            "type" : "VEC3"
        },
        {
            "bufferView" : 1,
            "componentType" : 5126,
            "count" : 44,
            "type" : "VEC3"
        },
        {
            "bufferView" : 2,
            "componentType" : 5126,
            "count" : 44,
            "type" : "VEC2"
        },
        {
            "bufferView" : 3,
            "componentType" : 5123,
            "count" : 48,
            "type" : "SCALAR"
        },
        {
            "bufferView" : 4,
            "componentType" : 5126,
            "count" : 250,
            "max" : [
                1,
                1,
                1
            ],
            "min" : [
                -1,
                -1.0470386743545532,
                -1
            ],
            "type" : "VEC3"
        },
        {
            "bufferView" : 5,
            "componentType" : 5126,
            "count" : 250,
            "type" : "VEC3"
        },
        {
            "bufferView" : 6,
            "componentType" : 5126,
            "count" : 250,
            "type" : "VEC2"
        },
        {
            "bufferView" : 7,
            "componentType" : 5123,
            "count" : 258,
            "type" : "SCALAR"
        },
        {
            "bufferView" : 8,
            "componentType" : 5126,
            "count" : 1412,
            "max" : [
                2.627023220062256,
                -1.0470386743545532,
                2.652658224105835
            ],
            "min" : [
                -2.643422842025757,
                -14.463075637817383,
                -2.6526522636413574
            ],
            "type" : "VEC3"
        },
        {
            "bufferView" : 9,
            "componentType" : 5126,
            "count" : 1412,
            "type" : "VEC3"
        },
        {
            "bufferView" : 10,
            "componentType" : 5126,
            "count" : 1412,
            "type" : "VEC2"
        },
        {
            "bufferView" : 11,
            "componentType" : 5123,
            "count" : 1788,
            "type" : "SCALAR"
        },
        {
            "bufferView" : 12,
            "componentType" : 5126,
            "count" : 12,
            "max" : [
                2.012047290802002,
                -4.629128456115723,
                -2.400099039077759
            ],
            "min" : [
                -2.022616386413574,
                -12.318242073059082,
                -2.4001009464263916
            ],
            "type" : "VEC3"
        },
        {
            "bufferView" : 13,
            "componentType" : 5126,
            "count" : 12,
            "type" : "VEC3"
        },
        {
            "bufferView" : 14,
            "componentType" : 5126,
            "count" : 12,
            "type" : "VEC2"
        },
        {
            "bufferView" : 15,
            "componentType" : 5123,
            "count" : 12,
            "type" : "SCALAR"
        },
        {
            "bufferView" : 16,
            "componentType" : 5126,
            "count" : 12,
            "max" : [
                2.012047290802002,
                -4.62912654876709,
                2.4001047611236572
            ],
            "min" : [
                -2.022616386413574,
                -12.31824016571045,
                2.4001028537750244
            ],
            "type" : "VEC3"
        },
        {
            "bufferView" : 17,
            "componentType" : 5126,
            "count" : 12,
            "type" : "VEC3"
        },
        {
            "bufferView" : 18,
            "componentType" : 5126,
            "count" : 12,
            "type" : "VEC2"
        },
        {
            "bufferView" : 19,
            "componentType" : 5126,
            "count" : 44,
            "max" : [
                0.9217678308486938,
                -0.46595877408981323,
                0.9217678904533386
            ],
            "min" : [
                -0.9217678904533386,
                -0.5259111523628235,
                -0.9217678904533386
            ],
            "type" : "VEC3"
        },
        {
            "bufferView" : 20,
            "componentType" : 5126,
            "count" : 44,
            "type" : "VEC3"
        },
        {
            "bufferView" : 21,
            "componentType" : 5126,
            "count" : 44,
            "type" : "VEC2"
        },
        {
            "bufferView" : 22,
            "componentType" : 5126,
            "count" : 250,
            "max" : [
                1,
                1,
                1
            ],
            "min" : [
                -1,
                -1.0470386743545532,
                -1
            ],
            "type" : "VEC3"
        },
        {
            "bufferView" : 23,
            "componentType" : 5126,
            "count" : 250,
            "type" : "VEC3"
        },
        {
            "bufferView" : 24,
            "componentType" : 5126,
            "count" : 250,
            "type" : "VEC2"
        },
        {
            "bufferView" : 25,
            "componentType" : 5126,
            "count" : 1412,
            "max" : [
                2.627023220062256,
                -1.0470386743545532,
                2.652658224105835
            ],
            "min" : [
                -2.643422842025757,
                -14.463075637817383,
                -2.6526522636413574
            ],
            "type" : "VEC3"
        },
        {
            "bufferView" : 26,
            "componentType" : 5126,
            "count" : 1412,
            "type" : "VEC3"
        },
        {
            "bufferView" : 27,
            "componentType" : 5126,
            "count" : 1412,
            "type" : "VEC2"
        },
        {
            "bufferView" : 28,
            "componentType" : 5126,
            "count" : 12,
            "max" : [
                2.012047290802002,
                -4.629128456115723,
                -2.400099039077759
            ],
            "min" : [
                -2.022616386413574,
                -12.318242073059082,
                -2.4001009464263916
            ],
            "type" : "VEC3"
        },
        {
            "bufferView" : 29,
            "componentType" : 5126,
            "count" : 12,
            "type" : "VEC3"
        },
        {
            "bufferView" : 30,
            "componentType" : 5126,
            "count" : 12,
            "type" : "VEC2"
        },
        {
            "bufferView" : 31,
            "componentType" : 5126,
            "count" : 12,
            "max" : [
                2.012047290802002,
                -4.62912654876709,
                2.4001047611236572
            ],
            "min" : [
                -2.022616386413574,
                -12.31824016571045,
                2.4001028537750244
            ],
            "type" : "VEC3"
        },
        {
            "bufferView" : 32,
            "componentType" : 5126,
            "count" : 12,
            "type" : "VEC3"
        },
        {
            "bufferView" : 33,
            "componentType" : 5126,
            "count" : 12,
            "type" : "VEC2"
        }
    ],
    "bufferViews" : [
        {
            "buffer" : 0,
            "byteLength" : 528,
            "byteOffset" : 0
        },
        {
            "buffer" : 0,
            "byteLength" : 528,
            "byteOffset" : 528
        },
        {
            "buffer" : 0,
            "byteLength" : 352,
            "byteOffset" : 1056
        },
        {
            "buffer" : 0,
            "byteLength" : 96,
            "byteOffset" : 1408
        },
        {
            "buffer" : 0,
            "byteLength" : 3000,
            "byteOffset" : 1504
        },
        {
            "buffer" : 0,
            "byteLength" : 3000,
            "byteOffset" : 4504
        },
        {
            "buffer" : 0,
            "byteLength" : 2000,
            "byteOffset" : 7504
        },
        {
            "buffer" : 0,
            "byteLength" : 516,
            "byteOffset" : 9504
        },
        {
            "buffer" : 0,
            "byteLength" : 16944,
            "byteOffset" : 10020
        },
        {
            "buffer" : 0,
            "byteLength" : 16944,
            "byteOffset" : 26964
        },
        {
            "buffer" : 0,
            "byteLength" : 11296,
            "byteOffset" : 43908
        },
        {
            "buffer" : 0,
            "byteLength" : 3576,
            "byteOffset" : 55204
        },
        {
            "buffer" : 0,
            "byteLength" : 144,
            "byteOffset" : 58780
        },
        {
            "buffer" : 0,
            "byteLength" : 144,
            "byteOffset" : 58924
        },
        {
            "buffer" : 0,
            "byteLength" : 96,
            "byteOffset" : 59068
        },
        {
            "buffer" : 0,
            "byteLength" : 24,
            "byteOffset" : 59164
        },
        {
            "buffer" : 0,
            "byteLength" : 144,
            "byteOffset" : 59188
        },
        {
            "buffer" : 0,
            "byteLength" : 144,
            "byteOffset" : 59332
        },
        {
            "buffer" : 0,
            "byteLength" : 96,
            "byteOffset" : 59476
        },
        {
            "buffer" : 0,
            "byteLength" : 528,
            "byteOffset" : 59572
        },
        {
            "buffer" : 0,
            "byteLength" : 528,
            "byteOffset" : 60100
        },
        {
            "buffer" : 0,
            "byteLength" : 352,
            "byteOffset" : 60628
        },
        {
            "buffer" : 0,
            "byteLength" : 3000,
            "byteOffset" : 60980
        },
        {
            "buffer" : 0,
            "byteLength" : 3000,
            "byteOffset" : 63980
        },
        {
            "buffer" : 0,
            "byteLength" : 2000,
            "byteOffset" : 66980
        },
        {
            "buffer" : 0,
            "byteLength" : 16944,
            "byteOffset" : 68980
        },
        {
            "buffer" : 0,
            "byteLength" : 16944,
            "byteOffset" : 85924
        },
        {
            "buffer" : 0,
            "byteLength" : 11296,
            "byteOffset" : 102868
        },
        {
            "buffer" : 0,
            "byteLength" : 144,
            "byteOffset" : 114164
        },
        {
            "buffer" : 0,
            "byteLength" : 144,
            "byteOffset" : 114308
        },
        {
            "buffer" : 0,
            "byteLength" : 96,
            "byteOffset" : 114452
        },
        {
            "buffer" : 0,
            "byteLength" : 144,
            "byteOffset" : 114548
        },
        {
            "buffer" : 0,
            "byteLength" : 144,
            "byteOffset" : 114692
        },
        {
            "buffer" : 0,
            "byteLength" : 96,
            "byteOffset" : 114836
        }
    ],
    "buffers" : [
        {
            "byteLength" : 114932,
            "uri" : "bottigliafiji.bin"
        }
    ]
}
