{
    "asset" : {
        "generator" : "Khronos glTF Blender I/O v1.0.5",
        "version" : "2.0"
    },
    "scene" : 0,
    "scenes" : [
        {
            "name" : "Scene",
            "nodes" : [
                0,
                1,
                2,
                3
            ]
        }
    ],
    "nodes" : [
        {
            "mesh" : 0,
            "name" : "Object_3.002",
            "scale" : [
                0.05930526927113533,
                0.05930526927113533,
                0.05930526927113533
            ],
            "translation" : [
                -18.88238525390625,
                11.865577697753906,
                -7.6088714599609375
            ]
        },
        {
            "mesh" : 1,
            "name" : "Object_3.005",
            "scale" : [
                0.05930526927113533,
                0.05930526927113533,
                0.05930526927113533
            ],
            "translation" : [
                -8.240097045898438,
                11.99999713897705,
                31.478408813476562
            ]
        },
        {
            "mesh" : 2,
            "name" : "Object_3.006",
            "scale" : [
                0.05930526927113533,
                0.05930526927113533,
                0.05930526927113533
            ],
            "translation" : [
                14.7574462890625,
                11.99999713897705,
                0.61419677734375
            ]
        },
        {
            "mesh" : 3,
            "name" : "Object_3.007",
            "scale" : [
                0.05930526927113533,
                0.05930526927113533,
                0.05930526927113533
            ],
            "translation" : [
                24.54852294921875,
                11.99999713897705,
                17.871337890625
            ]
        }
    ],
    "materials" : [
        {
            "doubleSided" : true,
            "emissiveFactor" : [
                0,
                0,
                0
            ],
            "name" : "material_0",
            "pbrMetallicRoughness" : {
                "baseColorFactor" : [
                    0.5,
                    0.5,
                    0.5,
                    1
                ],
                "metallicFactor" : 0,
                "roughnessFactor" : 0.6000000238418579
            }
        }
    ],
    "meshes" : [
        {
            "name" : "Mesh_0.003",
            "primitives" : [
                {
                    "attributes" : {
                        "POSITION" : 0,
                        "NORMAL" : 1
                    },
                    "indices" : 2,
                    "material" : 0
                },
                {
                    "attributes" : {
                        "POSITION" : 3,
                        "NORMAL" : 4
                    },
                    "indices" : 5,
                    "material" : 0
                },
                {
                    "attributes" : {
                        "POSITION" : 6,
                        "NORMAL" : 7
                    },
                    "indices" : 8,
                    "material" : 0
                }
            ]
        },
        {
            "name" : "Mesh_0.006",
            "primitives" : [
                {
                    "attributes" : {
                        "POSITION" : 9,
                        "NORMAL" : 10
                    },
                    "indices" : 2,
                    "material" : 0
                },
                {
                    "attributes" : {
                        "POSITION" : 11,
                        "NORMAL" : 12
                    },
                    "indices" : 5,
                    "material" : 0
                },
                {
                    "attributes" : {
                        "POSITION" : 13,
                        "NORMAL" : 14
                    },
                    "indices" : 8,
                    "material" : 0
                }
            ]
        },
        {
            "name" : "Mesh_0.007",
            "primitives" : [
                {
                    "attributes" : {
                        "POSITION" : 15,
                        "NORMAL" : 16
                    },
                    "indices" : 2,
                    "material" : 0
                },
                {
                    "attributes" : {
                        "POSITION" : 17,
                        "NORMAL" : 18
                    },
                    "indices" : 5,
                    "material" : 0
                },
                {
                    "attributes" : {
                        "POSITION" : 19,
                        "NORMAL" : 20
                    },
                    "indices" : 8,
                    "material" : 0
                }
            ]
        },
        {
            "name" : "Mesh_0.008",
            "primitives" : [
                {
                    "attributes" : {
                        "POSITION" : 21,
                        "NORMAL" : 22
                    },
                    "indices" : 2,
                    "material" : 0
                },
                {
                    "attributes" : {
                        "POSITION" : 23,
                        "NORMAL" : 24
                    },
                    "indices" : 5,
                    "material" : 0
                },
                {
                    "attributes" : {
                        "POSITION" : 25,
                        "NORMAL" : 26
                    },
                    "indices" : 8,
                    "material" : 0
                }
            ]
        }
    ],
    "accessors" : [
        {
            "bufferView" : 0,
            "componentType" : 5126,
            "count" : 65535,
            "max" : [
                18.3884334564209,
                2.7368874549865723,
                18.389005661010742
            ],
            "min" : [
                -18.391460418701172,
                -202.8000030517578,
                -18.391345977783203
            ],
            "type" : "VEC3"
        },
        {
            "bufferView" : 1,
            "componentType" : 5126,
            "count" : 65535,
            "type" : "VEC3"
        },
        {
            "bufferView" : 2,
            "componentType" : 5123,
            "count" : 297444,
            "type" : "SCALAR"
        },
        {
            "bufferView" : 3,
            "componentType" : 5126,
            "count" : 32271,
            "max" : [
                17.703153610229492,
                2.7306764125823975,
                -9.525766372680664
            ],
            "min" : [
                -17.70315170288086,
                -9.738889694213867,
                -11.430320739746094
            ],
            "type" : "VEC3"
        },
        {
            "bufferView" : 4,
            "componentType" : 5126,
            "count" : 32271,
            "type" : "VEC3"
        },
        {
            "bufferView" : 5,
            "componentType" : 5123,
            "count" : 138798,
            "type" : "SCALAR"
        },
        {
            "bufferView" : 6,
            "componentType" : 5126,
            "count" : 2072,
            "max" : [
                17.190868377685547,
                2.7303578853607178,
                -9.525766372680664
            ],
            "min" : [
                -11.469245910644531,
                -9.117753982543945,
                -11.426183700561523
            ],
            "type" : "VEC3"
        },
        {
            "bufferView" : 7,
            "componentType" : 5126,
            "count" : 2072,
            "type" : "VEC3"
        },
        {
            "bufferView" : 8,
            "componentType" : 5123,
            "count" : 5457,
            "type" : "SCALAR"
        },
        {
            "bufferView" : 9,
            "componentType" : 5126,
            "count" : 65535,
            "max" : [
                18.3884334564209,
                2.7368874549865723,
                18.389005661010742
            ],
            "min" : [
                -18.391460418701172,
                -202.8000030517578,
                -18.391345977783203
            ],
            "type" : "VEC3"
        },
        {
            "bufferView" : 10,
            "componentType" : 5126,
            "count" : 65535,
            "type" : "VEC3"
        },
        {
            "bufferView" : 11,
            "componentType" : 5126,
            "count" : 32271,
            "max" : [
                17.703153610229492,
                2.7306764125823975,
                -9.525766372680664
            ],
            "min" : [
                -17.70315170288086,
                -9.738889694213867,
                -11.430320739746094
            ],
            "type" : "VEC3"
        },
        {
            "bufferView" : 12,
            "componentType" : 5126,
            "count" : 32271,
            "type" : "VEC3"
        },
        {
            "bufferView" : 13,
            "componentType" : 5126,
            "count" : 2072,
            "max" : [
                17.190868377685547,
                2.7303578853607178,
                -9.525766372680664
            ],
            "min" : [
                -11.469245910644531,
                -9.117753982543945,
                -11.426183700561523
            ],
            "type" : "VEC3"
        },
        {
            "bufferView" : 14,
            "componentType" : 5126,
            "count" : 2072,
            "type" : "VEC3"
        },
        {
            "bufferView" : 15,
            "componentType" : 5126,
            "count" : 65535,
            "max" : [
                18.3884334564209,
                2.7368874549865723,
                18.389005661010742
            ],
            "min" : [
                -18.391460418701172,
                -202.8000030517578,
                -18.391345977783203
            ],
            "type" : "VEC3"
        },
        {
            "bufferView" : 16,
            "componentType" : 5126,
            "count" : 65535,
            "type" : "VEC3"
        },
        {
            "bufferView" : 17,
            "componentType" : 5126,
            "count" : 32271,
            "max" : [
                17.703153610229492,
                2.7306764125823975,
                -9.525766372680664
            ],
            "min" : [
                -17.70315170288086,
                -9.738889694213867,
                -11.430320739746094
            ],
            "type" : "VEC3"
        },
        {
            "bufferView" : 18,
            "componentType" : 5126,
            "count" : 32271,
            "type" : "VEC3"
        },
        {
            "bufferView" : 19,
            "componentType" : 5126,
            "count" : 2072,
            "max" : [
                17.190868377685547,
                2.7303578853607178,
                -9.525766372680664
            ],
            "min" : [
                -11.469245910644531,
                -9.117753982543945,
                -11.426183700561523
            ],
            "type" : "VEC3"
        },
        {
            "bufferView" : 20,
            "componentType" : 5126,
            "count" : 2072,
            "type" : "VEC3"
        },
        {
            "bufferView" : 21,
            "componentType" : 5126,
            "count" : 65535,
            "max" : [
                18.3884334564209,
                2.7368874549865723,
                18.389005661010742
            ],
            "min" : [
                -18.391460418701172,
                -202.8000030517578,
                -18.391345977783203
            ],
            "type" : "VEC3"
        },
        {
            "bufferView" : 22,
            "componentType" : 5126,
            "count" : 65535,
            "type" : "VEC3"
        },
        {
            "bufferView" : 23,
            "componentType" : 5126,
            "count" : 32271,
            "max" : [
                17.703153610229492,
                2.7306764125823975,
                -9.525766372680664
            ],
            "min" : [
                -17.70315170288086,
                -9.738889694213867,
                -11.430320739746094
            ],
            "type" : "VEC3"
        },
        {
            "bufferView" : 24,
            "componentType" : 5126,
            "count" : 32271,
            "type" : "VEC3"
        },
        {
            "bufferView" : 25,
            "componentType" : 5126,
            "count" : 2072,
            "max" : [
                17.190868377685547,
                2.7303578853607178,
                -9.525766372680664
            ],
            "min" : [
                -11.469245910644531,
                -9.117753982543945,
                -11.426183700561523
            ],
            "type" : "VEC3"
        },
        {
            "bufferView" : 26,
            "componentType" : 5126,
            "count" : 2072,
            "type" : "VEC3"
        }
    ],
    "bufferViews" : [
        {
            "buffer" : 0,
            "byteLength" : 786420,
            "byteOffset" : 0
        },
        {
            "buffer" : 0,
            "byteLength" : 786420,
            "byteOffset" : 786420
        },
        {
            "buffer" : 0,
            "byteLength" : 594888,
            "byteOffset" : 1572840
        },
        {
            "buffer" : 0,
            "byteLength" : 387252,
            "byteOffset" : 2167728
        },
        {
            "buffer" : 0,
            "byteLength" : 387252,
            "byteOffset" : 2554980
        },
        {
            "buffer" : 0,
            "byteLength" : 277596,
            "byteOffset" : 2942232
        },
        {
            "buffer" : 0,
            "byteLength" : 24864,
            "byteOffset" : 3219828
        },
        {
            "buffer" : 0,
            "byteLength" : 24864,
            "byteOffset" : 3244692
        },
        {
            "buffer" : 0,
            "byteLength" : 10914,
            "byteOffset" : 3269556
        },
        {
            "buffer" : 0,
            "byteLength" : 786420,
            "byteOffset" : 3280472
        },
        {
            "buffer" : 0,
            "byteLength" : 786420,
            "byteOffset" : 4066892
        },
        {
            "buffer" : 0,
            "byteLength" : 387252,
            "byteOffset" : 4853312
        },
        {
            "buffer" : 0,
            "byteLength" : 387252,
            "byteOffset" : 5240564
        },
        {
            "buffer" : 0,
            "byteLength" : 24864,
            "byteOffset" : 5627816
        },
        {
            "buffer" : 0,
            "byteLength" : 24864,
            "byteOffset" : 5652680
        },
        {
            "buffer" : 0,
            "byteLength" : 786420,
            "byteOffset" : 5677544
        },
        {
            "buffer" : 0,
            "byteLength" : 786420,
            "byteOffset" : 6463964
        },
        {
            "buffer" : 0,
            "byteLength" : 387252,
            "byteOffset" : 7250384
        },
        {
            "buffer" : 0,
            "byteLength" : 387252,
            "byteOffset" : 7637636
        },
        {
            "buffer" : 0,
            "byteLength" : 24864,
            "byteOffset" : 8024888
        },
        {
            "buffer" : 0,
            "byteLength" : 24864,
            "byteOffset" : 8049752
        },
        {
            "buffer" : 0,
            "byteLength" : 786420,
            "byteOffset" : 8074616
        },
        {
            "buffer" : 0,
            "byteLength" : 786420,
            "byteOffset" : 8861036
        },
        {
            "buffer" : 0,
            "byteLength" : 387252,
            "byteOffset" : 9647456
        },
        {
            "buffer" : 0,
            "byteLength" : 387252,
            "byteOffset" : 10034708
        },
        {
            "buffer" : 0,
            "byteLength" : 24864,
            "byteOffset" : 10421960
        },
        {
            "buffer" : 0,
            "byteLength" : 24864,
            "byteOffset" : 10446824
        }
    ],
    "buffers" : [
        {
            "byteLength" : 10471688,
            "uri" : "colonnine.bin"
        }
    ]
}
