{
    "asset" : {
        "generator" : "Khronos glTF Blender I/O v1.0.5",
        "version" : "2.0"
    },
    "scene" : 0,
    "scenes" : [
        {
            "name" : "Scene",
            "nodes" : [
                0,
                1,
                2
            ]
        }
    ],
    "nodes" : [
        {
            "mesh" : 0,
            "name" : "Object_4",
            "rotation" : [
                0,
                0.22176861763000488,
                0,
                0.9750993251800537
            ],
            "scale" : [
                0.5609923601150513,
                0.5609923601150513,
                0.5609923601150513
            ],
            "translation" : [
                -7.807686805725098,
                -2.1249985694885254,
                -1.2995665073394775
            ]
        },
        {
            "mesh" : 1,
            "name" : "Object_4.001",
            "rotation" : [
                0,
                0.8933168649673462,
                0,
                0.44942739605903625
            ],
            "scale" : [
                0.5609923601150513,
                0.5609923601150513,
                0.5609923601150513
            ],
            "translation" : [
                10.556964874267578,
                -2.2250208854675293,
                5.476161003112793
            ]
        },
        {
            "mesh" : 2,
            "name" : "Object_4.002",
            "rotation" : [
                0,
                0.579558253288269,
                0,
                0.81493079662323
            ],
            "scale" : [
                0.5609923601150513,
                0.5609923601150513,
                0.5609923601150513
            ],
            "translation" : [
                4.296848297119141,
                -2.137589454650879,
                19.941883087158203
            ]
        }
    ],
    "materials" : [
        {
            "doubleSided" : true,
            "emissiveFactor" : [
                0,
                0,
                0
            ],
            "name" : "initialShadingGroup",
            "pbrMetallicRoughness" : {
                "baseColorFactor" : [
                    0.10286910086870193,
                    0.014801873825490475,
                    0.003536622039973736,
                    1
                ],
                "metallicFactor" : 0,
                "roughnessFactor" : 0.6000000238418579
            }
        },
        {
            "doubleSided" : true,
            "emissiveFactor" : [
                0,
                0,
                0
            ],
            "name" : "blinn1SG",
            "pbrMetallicRoughness" : {
                "baseColorTexture" : {
                    "index" : 0,
                    "texCoord" : 0
                },
                "metallicFactor" : 0,
                "roughnessFactor" : 0.6000000238418579
            }
        }
    ],
    "meshes" : [
        {
            "name" : "Mesh_1",
            "primitives" : [
                {
                    "attributes" : {
                        "POSITION" : 0,
                        "NORMAL" : 1,
                        "TEXCOORD_0" : 2
                    },
                    "indices" : 3,
                    "material" : 0
                },
                {
                    "attributes" : {
                        "POSITION" : 4,
                        "NORMAL" : 5,
                        "TEXCOORD_0" : 6
                    },
                    "indices" : 7,
                    "material" : 1
                }
            ]
        },
        {
            "name" : "Mesh_1.001",
            "primitives" : [
                {
                    "attributes" : {
                        "POSITION" : 8,
                        "NORMAL" : 9,
                        "TEXCOORD_0" : 10
                    },
                    "indices" : 3,
                    "material" : 0
                },
                {
                    "attributes" : {
                        "POSITION" : 11,
                        "NORMAL" : 12,
                        "TEXCOORD_0" : 13
                    },
                    "indices" : 7,
                    "material" : 1
                }
            ]
        },
        {
            "name" : "Mesh_1.002",
            "primitives" : [
                {
                    "attributes" : {
                        "POSITION" : 14,
                        "NORMAL" : 15,
                        "TEXCOORD_0" : 16
                    },
                    "indices" : 3,
                    "material" : 0
                },
                {
                    "attributes" : {
                        "POSITION" : 17,
                        "NORMAL" : 18,
                        "TEXCOORD_0" : 19
                    },
                    "indices" : 7,
                    "material" : 1
                }
            ]
        }
    ],
    "textures" : [
        {
            "source" : 0
        }
    ],
    "images" : [
        {
            "mimeType" : "image/png",
            "name" : "blinn1SG_baseColor",
            "uri" : "blinn1SG_baseColor.png"
        }
    ],
    "accessors" : [
        {
            "bufferView" : 0,
            "componentType" : 5126,
            "count" : 287,
            "max" : [
                -3.306102991104126,
                9.011787414550781,
                0.7293210029602051
            ],
            "min" : [
                -7.783438205718994,
                3.902134895324707,
                -0.6061829924583435
            ],
            "type" : "VEC3"
        },
        {
            "bufferView" : 1,
            "componentType" : 5126,
            "count" : 287,
            "type" : "VEC3"
        },
        {
            "bufferView" : 2,
            "componentType" : 5126,
            "count" : 287,
            "type" : "VEC2"
        },
        {
            "bufferView" : 3,
            "componentType" : 5123,
            "count" : 564,
            "type" : "SCALAR"
        },
        {
            "bufferView" : 4,
            "componentType" : 5126,
            "count" : 488,
            "max" : [
                -2.820633888244629,
                15.120930671691895,
                1.0128300189971924
            ],
            "min" : [
                -8.46275520324707,
                8.544337272644043,
                -1.0160590410232544
            ],
            "type" : "VEC3"
        },
        {
            "bufferView" : 5,
            "componentType" : 5126,
            "count" : 488,
            "type" : "VEC3"
        },
        {
            "bufferView" : 6,
            "componentType" : 5126,
            "count" : 488,
            "type" : "VEC2"
        },
        {
            "bufferView" : 7,
            "componentType" : 5123,
            "count" : 1200,
            "type" : "SCALAR"
        },
        {
            "bufferView" : 8,
            "componentType" : 5126,
            "count" : 287,
            "max" : [
                -3.306102991104126,
                9.011787414550781,
                0.7293210029602051
            ],
            "min" : [
                -7.783438205718994,
                3.902134895324707,
                -0.6061829924583435
            ],
            "type" : "VEC3"
        },
        {
            "bufferView" : 9,
            "componentType" : 5126,
            "count" : 287,
            "type" : "VEC3"
        },
        {
            "bufferView" : 10,
            "componentType" : 5126,
            "count" : 287,
            "type" : "VEC2"
        },
        {
            "bufferView" : 11,
            "componentType" : 5126,
            "count" : 488,
            "max" : [
                -2.820633888244629,
                15.120930671691895,
                1.0128300189971924
            ],
            "min" : [
                -8.46275520324707,
                8.544337272644043,
                -1.0160590410232544
            ],
            "type" : "VEC3"
        },
        {
            "bufferView" : 12,
            "componentType" : 5126,
            "count" : 488,
            "type" : "VEC3"
        },
        {
            "bufferView" : 13,
            "componentType" : 5126,
            "count" : 488,
            "type" : "VEC2"
        },
        {
            "bufferView" : 14,
            "componentType" : 5126,
            "count" : 287,
            "max" : [
                -3.306102991104126,
                9.011787414550781,
                0.7293210029602051
            ],
            "min" : [
                -7.783438205718994,
                3.902134895324707,
                -0.6061829924583435
            ],
            "type" : "VEC3"
        },
        {
            "bufferView" : 15,
            "componentType" : 5126,
            "count" : 287,
            "type" : "VEC3"
        },
        {
            "bufferView" : 16,
            "componentType" : 5126,
            "count" : 287,
            "type" : "VEC2"
        },
        {
            "bufferView" : 17,
            "componentType" : 5126,
            "count" : 488,
            "max" : [
                -2.820633888244629,
                15.120930671691895,
                1.0128300189971924
            ],
            "min" : [
                -8.46275520324707,
                8.544337272644043,
                -1.0160590410232544
            ],
            "type" : "VEC3"
        },
        {
            "bufferView" : 18,
            "componentType" : 5126,
            "count" : 488,
            "type" : "VEC3"
        },
        {
            "bufferView" : 19,
            "componentType" : 5126,
            "count" : 488,
            "type" : "VEC2"
        }
    ],
    "bufferViews" : [
        {
            "buffer" : 0,
            "byteLength" : 3444,
            "byteOffset" : 0
        },
        {
            "buffer" : 0,
            "byteLength" : 3444,
            "byteOffset" : 3444
        },
        {
            "buffer" : 0,
            "byteLength" : 2296,
            "byteOffset" : 6888
        },
        {
            "buffer" : 0,
            "byteLength" : 1128,
            "byteOffset" : 9184
        },
        {
            "buffer" : 0,
            "byteLength" : 5856,
            "byteOffset" : 10312
        },
        {
            "buffer" : 0,
            "byteLength" : 5856,
            "byteOffset" : 16168
        },
        {
            "buffer" : 0,
            "byteLength" : 3904,
            "byteOffset" : 22024
        },
        {
            "buffer" : 0,
            "byteLength" : 2400,
            "byteOffset" : 25928
        },
        {
            "buffer" : 0,
            "byteLength" : 3444,
            "byteOffset" : 28328
        },
        {
            "buffer" : 0,
            "byteLength" : 3444,
            "byteOffset" : 31772
        },
        {
            "buffer" : 0,
            "byteLength" : 2296,
            "byteOffset" : 35216
        },
        {
            "buffer" : 0,
            "byteLength" : 5856,
            "byteOffset" : 37512
        },
        {
            "buffer" : 0,
            "byteLength" : 5856,
            "byteOffset" : 43368
        },
        {
            "buffer" : 0,
            "byteLength" : 3904,
            "byteOffset" : 49224
        },
        {
            "buffer" : 0,
            "byteLength" : 3444,
            "byteOffset" : 53128
        },
        {
            "buffer" : 0,
            "byteLength" : 3444,
            "byteOffset" : 56572
        },
        {
            "buffer" : 0,
            "byteLength" : 2296,
            "byteOffset" : 60016
        },
        {
            "buffer" : 0,
            "byteLength" : 5856,
            "byteOffset" : 62312
        },
        {
            "buffer" : 0,
            "byteLength" : 5856,
            "byteOffset" : 68168
        },
        {
            "buffer" : 0,
            "byteLength" : 3904,
            "byteOffset" : 74024
        }
    ],
    "buffers" : [
        {
            "byteLength" : 77928,
            "uri" : "flamingo.bin"
        }
    ]
}
