{
    "asset" : {
        "generator" : "Khronos glTF Blender I/O v1.0.5",
        "version" : "2.0"
    },
    "scene" : 0,
    "scenes" : [
        {
            "name" : "Scene",
            "nodes" : [
                0,
                1
            ]
        }
    ],
    "nodes" : [
        {
            "mesh" : 0,
            "name" : "Object_39",
            "rotation" : [
                0.6006738543510437,
                -0.3237205147743225,
                0.30570870637893677,
                0.6640316843986511
            ],
            "scale" : [
                0.37784504890441895,
                0.37784501910209656,
                0.3778451383113861
            ],
            "translation" : [
                4.834053039550781,
                0.1781768798828125,
                23.64785385131836
            ]
        },
        {
            "mesh" : 1,
            "name" : "Object_39.001",
            "rotation" : [
                0.5011504292488098,
                -0.4844708740711212,
                0.45068299770355225,
                0.5576926469802856
            ],
            "scale" : [
                0.37784504890441895,
                0.37784501910209656,
                0.3778451383113861
            ],
            "translation" : [
                -14.946131706237793,
                0.13506126403808594,
                13.805211067199707
            ]
        }
    ],
    "materials" : [
        {
            "doubleSided" : true,
            "name" : "Material.008",
            "pbrMetallicRoughness" : {
                "baseColorFactor" : [
                    0.3458400368690491,
                    0.10802296549081802,
                    0.8000000715255737,
                    1
                ],
                "metallicFactor" : 0,
                "roughnessFactor" : 0.5
            }
        },
        {
            "doubleSided" : true,
            "name" : "Material.009",
            "pbrMetallicRoughness" : {
                "baseColorFactor" : [
                    0.8000000715255737,
                    0.07918386161327362,
                    0.4255921542644501,
                    1
                ],
                "metallicFactor" : 0,
                "roughnessFactor" : 0.5
            }
        }
    ],
    "meshes" : [
        {
            "name" : "Mesh_17",
            "primitives" : [
                {
                    "attributes" : {
                        "POSITION" : 0,
                        "NORMAL" : 1,
                        "TEXCOORD_0" : 2
                    },
                    "indices" : 3,
                    "material" : 0
                },
                {
                    "attributes" : {
                        "POSITION" : 4,
                        "NORMAL" : 5,
                        "TEXCOORD_0" : 6
                    },
                    "indices" : 7,
                    "material" : 1
                }
            ]
        },
        {
            "name" : "Mesh_17.001",
            "primitives" : [
                {
                    "attributes" : {
                        "POSITION" : 8,
                        "NORMAL" : 9,
                        "TEXCOORD_0" : 10
                    },
                    "indices" : 3,
                    "material" : 0
                },
                {
                    "attributes" : {
                        "POSITION" : 11,
                        "NORMAL" : 12,
                        "TEXCOORD_0" : 13
                    },
                    "indices" : 7,
                    "material" : 1
                }
            ]
        }
    ],
    "accessors" : [
        {
            "bufferView" : 0,
            "componentType" : 5126,
            "count" : 664,
            "max" : [
                1.1737031936645508,
                1.0094479322433472,
                1
            ],
            "min" : [
                -3.7158546447753906,
                -2.284806251525879,
                -13.622557640075684
            ],
            "type" : "VEC3"
        },
        {
            "bufferView" : 1,
            "componentType" : 5126,
            "count" : 664,
            "type" : "VEC3"
        },
        {
            "bufferView" : 2,
            "componentType" : 5126,
            "count" : 664,
            "type" : "VEC2"
        },
        {
            "bufferView" : 3,
            "componentType" : 5123,
            "count" : 672,
            "type" : "SCALAR"
        },
        {
            "bufferView" : 4,
            "componentType" : 5126,
            "count" : 340,
            "max" : [
                6.124293804168701,
                8.68617057800293,
                -7.501618385314941
            ],
            "min" : [
                -12.136581420898438,
                -11.14719009399414,
                -17.425765991210938
            ],
            "type" : "VEC3"
        },
        {
            "bufferView" : 5,
            "componentType" : 5126,
            "count" : 340,
            "type" : "VEC3"
        },
        {
            "bufferView" : 6,
            "componentType" : 5126,
            "count" : 340,
            "type" : "VEC2"
        },
        {
            "bufferView" : 7,
            "componentType" : 5123,
            "count" : 468,
            "type" : "SCALAR"
        },
        {
            "bufferView" : 8,
            "componentType" : 5126,
            "count" : 664,
            "max" : [
                1.1737031936645508,
                1.0094479322433472,
                1
            ],
            "min" : [
                -3.7158546447753906,
                -2.284806251525879,
                -13.622557640075684
            ],
            "type" : "VEC3"
        },
        {
            "bufferView" : 9,
            "componentType" : 5126,
            "count" : 664,
            "type" : "VEC3"
        },
        {
            "bufferView" : 10,
            "componentType" : 5126,
            "count" : 664,
            "type" : "VEC2"
        },
        {
            "bufferView" : 11,
            "componentType" : 5126,
            "count" : 340,
            "max" : [
                6.124293804168701,
                8.68617057800293,
                -7.501618385314941
            ],
            "min" : [
                -12.136581420898438,
                -11.14719009399414,
                -17.425765991210938
            ],
            "type" : "VEC3"
        },
        {
            "bufferView" : 12,
            "componentType" : 5126,
            "count" : 340,
            "type" : "VEC3"
        },
        {
            "bufferView" : 13,
            "componentType" : 5126,
            "count" : 340,
            "type" : "VEC2"
        }
    ],
    "bufferViews" : [
        {
            "buffer" : 0,
            "byteLength" : 7968,
            "byteOffset" : 0
        },
        {
            "buffer" : 0,
            "byteLength" : 7968,
            "byteOffset" : 7968
        },
        {
            "buffer" : 0,
            "byteLength" : 5312,
            "byteOffset" : 15936
        },
        {
            "buffer" : 0,
            "byteLength" : 1344,
            "byteOffset" : 21248
        },
        {
            "buffer" : 0,
            "byteLength" : 4080,
            "byteOffset" : 22592
        },
        {
            "buffer" : 0,
            "byteLength" : 4080,
            "byteOffset" : 26672
        },
        {
            "buffer" : 0,
            "byteLength" : 2720,
            "byteOffset" : 30752
        },
        {
            "buffer" : 0,
            "byteLength" : 936,
            "byteOffset" : 33472
        },
        {
            "buffer" : 0,
            "byteLength" : 7968,
            "byteOffset" : 34408
        },
        {
            "buffer" : 0,
            "byteLength" : 7968,
            "byteOffset" : 42376
        },
        {
            "buffer" : 0,
            "byteLength" : 5312,
            "byteOffset" : 50344
        },
        {
            "buffer" : 0,
            "byteLength" : 4080,
            "byteOffset" : 55656
        },
        {
            "buffer" : 0,
            "byteLength" : 4080,
            "byteOffset" : 59736
        },
        {
            "buffer" : 0,
            "byteLength" : 2720,
            "byteOffset" : 63816
        }
    ],
    "buffers" : [
        {
            "byteLength" : 66536,
            "uri" : "palme.bin"
        }
    ]
}
